<?xml version="1.0" standalone="no"?>
<!DOCTYPE svg PUBLIC "-//W3C//DTD SVG 20010904//EN"
 "http://www.w3.org/TR/2001/REC-SVG-20010904/DTD/svg10.dtd">
<svg version="1.0" xmlns="http://www.w3.org/2000/svg"
 width="3400.000000pt" height="1763.000000pt" viewBox="0 0 3400.000000 1763.000000"
 preserveAspectRatio="xMidYMid meet">
<metadata>
Created by potrace 1.16, written by Peter Selinger 2001-2019
</metadata>
<g transform="translate(0.000000,1763.000000) scale(0.100000,-0.100000)"
fill="#000000" stroke="none">
<path d="M2010 8820 l0 -6810 5308 0 c2919 -1 5386 -1 5482 -1 96 1 4453 1
9683 1 l9507 0 0 6810 0 6810 -14990 0 -14990 0 0 -6810z m10390 140 l0 -6370
-4902 2 -4903 3 -3 6360 c-1 3498 0 6365 2 6370 2 7 1644 9 4905 7 l4901 -2 0
-6370z m19010 0 l0 -6370 -9115 0 -9115 0 0 6370 0 6370 9115 0 9115 0 0
-6370z"/>
<path d="M8180 13073 c-240 -13 -510 -63 -708 -129 -424 -142 -811 -381 -1127
-699 -473 -474 -774 -1055 -886 -1708 -27 -156 -37 -503 -20 -685 31 -328 116
-669 246 -987 52 -129 236 -500 278 -562 39 -59 39 -60 -38 -88 -174 -63 -372
-205 -645 -463 -345 -326 -535 -571 -695 -897 -162 -330 -232 -618 -242 -987
-8 -307 14 -503 87 -752 187 -644 576 -1067 1210 -1319 346 -138 677 -199
1075 -200 658 -2 1261 176 1785 528 372 251 678 552 1106 1091 381 481 775
1020 807 1106 3 9 34 58 69 110 87 128 180 317 208 418 54 202 -5 352 -174
437 -98 50 -181 56 -260 20 -30 -14 -74 -40 -96 -58 -50 -40 -137 -153 -180
-233 -17 -33 -42 -73 -54 -90 -13 -17 -40 -59 -60 -94 -21 -34 -61 -91 -90
-127 -29 -35 -77 -104 -105 -153 -54 -91 -242 -334 -335 -432 -29 -30 -113
-136 -188 -235 -476 -633 -847 -974 -1317 -1209 -295 -149 -551 -225 -881
-263 -105 -12 -376 -6 -494 11 -547 79 -1013 366 -1153 708 -74 182 -109 411
-100 663 15 449 193 893 507 1268 246 293 600 502 955 562 106 18 180 16 290
-10 105 -24 316 -47 369 -40 76 9 165 56 204 106 43 58 113 269 120 366 4 64
2 77 -21 116 -40 68 -136 123 -361 207 -346 128 -567 327 -745 671 -161 310
-255 809 -230 1220 29 474 208 871 590 1314 379 440 897 674 1544 701 95 4
177 2 225 -5 82 -13 288 -60 307 -70 9 -4 -16 -41 -73 -110 -120 -146 -162
-212 -209 -326 -81 -195 -115 -369 -115 -584 0 -236 40 -421 130 -607 111
-229 292 -411 490 -490 139 -57 202 -67 405 -68 226 -1 287 11 440 84 296 143
505 463 581 890 22 125 22 396 0 540 -37 240 -121 467 -234 637 -29 45 -33 56
-21 63 45 29 279 116 378 142 135 35 178 55 215 98 40 48 36 103 -16 203 -56
109 -141 195 -223 227 -83 31 -214 38 -321 16 -84 -17 -285 -82 -414 -134
-111 -44 -137 -48 -163 -24 -35 31 -103 67 -252 132 -248 108 -373 144 -610
171 -92 10 -637 19 -765 12z m1543 -1389 c202 -133 202 -654 0 -858 -41 -41
-104 -75 -140 -76 -37 0 -132 40 -167 70 -72 64 -114 195 -101 320 20 207 107
393 244 524 56 53 65 58 94 52 17 -4 49 -18 70 -32z"/>
<path d="M15303 9141 c-99 -27 -148 -55 -213 -120 -72 -71 -102 -144 -102
-247 0 -125 43 -206 144 -274 74 -49 134 -72 299 -110 142 -33 236 -70 266
-102 24 -27 23 -90 -3 -125 -38 -52 -96 -73 -206 -73 -140 0 -244 37 -356 128
-25 20 -46 31 -51 26 -5 -5 -37 -49 -71 -98 -73 -102 -73 -100 16 -163 206
-146 541 -176 757 -66 138 69 217 212 205 367 -15 182 -135 284 -418 356 -261
65 -310 91 -310 160 0 47 36 94 83 109 118 39 312 -1 425 -87 24 -18 45 -32
47 -30 1 2 34 47 73 100 l71 97 -48 35 c-60 44 -157 90 -236 112 -96 26 -285
28 -372 5z"/>
<path d="M17171 9140 c-187 -50 -330 -162 -411 -321 -51 -98 -65 -168 -65
-314 1 -130 3 -146 31 -225 38 -107 87 -181 169 -259 195 -182 508 -222 765
-99 114 55 229 168 282 278 124 258 78 579 -110 768 -78 78 -147 121 -252 158
-105 37 -299 44 -409 14z m321 -237 c145 -57 234 -189 245 -363 9 -135 -29
-251 -113 -340 -80 -85 -190 -122 -325 -109 -279 29 -426 360 -284 640 47 92
146 167 249 189 60 13 174 5 228 -17z"/>
<path d="M27360 9140 c-188 -49 -342 -171 -418 -331 -46 -97 -60 -151 -69
-258 -11 -144 30 -297 112 -422 77 -115 184 -194 330 -245 73 -26 92 -28 215
-28 118 1 145 4 216 27 155 51 271 152 344 300 46 92 80 235 80 335 l0 62
-342 -2 -343 -3 -3 -117 -3 -118 201 0 201 0 -6 -22 c-13 -41 -53 -104 -92
-142 -137 -133 -392 -115 -529 37 -231 256 -80 678 255 713 110 12 252 -46
316 -130 l26 -35 51 30 c28 17 77 44 110 60 l59 30 -23 32 c-75 108 -208 198
-343 232 -84 21 -251 19 -345 -5z"/>
<path d="M18671 9088 c12 -29 109 -280 216 -558 107 -278 208 -540 225 -582
l30 -78 164 0 c145 0 164 2 172 18 8 15 97 243 404 1041 43 112 78 205 78 207
0 2 -67 4 -149 4 l-149 0 -10 -27 c-110 -311 -336 -930 -342 -936 -4 -4 -51
115 -106 265 -54 150 -132 368 -174 483 l-77 210 -151 3 -152 3 21 -53z"/>
<path d="M20662 8508 l3 -633 448 -3 447 -2 0 120 0 120 -315 0 -315 0 0 145
0 145 305 0 305 0 0 120 0 120 -305 0 -305 0 0 135 0 135 315 0 315 0 0 115 0
115 -450 0 -450 0 2 -632z"/>
<path d="M22350 8505 l0 -635 130 0 130 0 2 228 3 227 100 3 101 3 126 -228
126 -228 151 -1 c83 -1 151 0 151 3 0 2 -63 110 -141 240 -77 129 -139 236
-137 238 2 1 30 14 63 29 181 82 262 304 185 509 -41 109 -158 208 -281 236
-25 6 -189 11 -376 11 l-333 0 0 -635z m655 380 c60 -30 85 -75 85 -150 0 -77
-25 -120 -90 -152 -41 -21 -58 -23 -217 -23 l-173 0 0 168 c0 93 3 172 7 176
4 4 84 6 178 4 146 -3 176 -6 210 -23z"/>
<path d="M24150 8505 l0 -635 445 0 445 0 0 120 0 120 -310 0 -310 0 0 145 0
145 305 0 305 0 0 120 0 120 -304 0 -305 0 -3 131 c-2 72 -1 133 1 135 2 2
143 4 312 4 l308 0 3 111 c2 61 1 113 -1 115 -2 2 -204 4 -448 4 l-443 0 0
-635z"/>
<path d="M25840 8505 l0 -635 130 0 130 0 0 635 0 635 -130 0 -130 0 0 -635z"/>
<path d="M28880 8505 l0 -636 133 3 132 3 5 411 5 412 303 -414 304 -414 124
0 124 0 0 635 0 635 -130 0 -130 0 0 -395 c0 -217 -3 -395 -7 -394 -5 0 -78
96 -163 212 -85 117 -215 294 -289 395 l-135 182 -138 0 -138 0 0 -635z"/>
</g>
</svg>
