<svg id="svg" version="1.1" xmlns="http://www.w3.org/2000/svg" xmlns:xlink="http://www.w3.org/1999/xlink" width="400" height="207.41176470588238" viewBox="0, 0, 400,207.41176470588238"><g id="svgg"><path id="path0" d="M23.667 103.583 L 23.667 183.667 200.000 183.667 L 376.333 183.667 376.333 103.583 L 376.333 23.500 200.000 23.500 L 23.667 23.500 23.667 103.583 M145.917 101.917 L 145.917 176.750 88.208 176.792 L 30.500 176.834 30.500 101.917 L 30.500 27.000 88.208 27.041 L 145.917 27.083 145.917 101.917 M369.500 101.917 L 369.500 176.833 262.250 176.833 L 155.000 176.833 155.000 101.917 L 155.000 27.000 262.250 27.000 L 369.500 27.000 369.500 101.917 M95.250 53.678 C 83.440 54.683,73.166 61.958,67.488 73.337 C 62.757 82.818,62.713 93.752,67.365 104.167 C 67.989 105.564,69.869 109.247,70.186 109.692 C 70.648 110.343,70.598 110.423,69.477 110.842 C 65.984 112.148,59.241 118.315,55.971 123.195 C 46.732 136.982,50.824 155.535,64.506 161.885 C 78.439 168.351,94.884 164.981,106.590 153.260 C 110.868 148.975,119.957 137.459,122.381 133.250 C 122.698 132.700,123.384 131.551,123.905 130.697 C 126.643 126.210,126.648 123.342,123.921 121.744 C 121.494 120.321,119.470 121.404,117.083 125.403 C 116.442 126.478,115.571 127.789,115.149 128.317 C 114.727 128.844,114.168 129.645,113.908 130.096 C 113.131 131.445,111.282 133.852,109.823 135.417 C 109.396 135.875,108.316 137.225,107.423 138.417 C 100.323 147.893,93.960 152.676,85.667 154.770 C 75.908 157.235,64.785 153.362,62.260 146.621 C 59.761 139.949,61.670 130.887,66.899 124.603 C 70.991 119.686,77.242 116.775,81.684 117.717 C 86.856 118.814,88.377 118.293,89.409 115.070 C 90.538 111.546,90.125 110.733,86.500 109.338 C 79.342 106.585,76.196 102.651,74.590 94.444 C 72.666 84.614,75.306 76.449,82.676 69.435 C 88.281 64.101,97.370 61.656,104.476 63.572 C 105.666 63.893,105.659 63.853,104.713 64.952 C 99.123 71.447,99.331 81.487,105.169 86.892 C 108.284 89.776,113.853 90.500,117.966 88.555 C 125.172 85.147,127.331 72.293,122.040 64.298 C 121.789 63.919,121.676 63.595,121.765 63.512 C 122.020 63.273,125.350 62.027,126.493 61.742 C 129.008 61.114,129.550 60.241,128.594 58.355 C 127.038 55.284,124.202 54.561,119.833 56.124 C 115.641 57.623,115.816 57.572,115.524 57.364 C 111.327 54.375,103.592 52.969,95.250 53.678 M114.448 69.981 C 117.579 72.249,116.152 80.833,112.644 80.833 C 108.686 80.833,108.602 73.625,112.519 70.086 C 113.306 69.375,113.589 69.359,114.448 69.981 M180.083 99.825 C 175.742 100.908,174.930 106.097,178.833 107.813 C 179.246 107.994,180.371 108.341,181.333 108.585 C 184.586 109.406,185.361 109.986,184.760 111.147 C 183.962 112.690,180.617 112.573,178.318 110.922 C 177.850 110.585,177.451 110.334,177.432 110.364 C 177.412 110.393,177.045 110.916,176.617 111.527 L 175.838 112.636 176.424 113.150 C 179.856 116.164,186.833 115.308,187.835 111.749 C 188.732 108.560,187.337 106.822,182.961 105.678 C 179.943 104.889,179.500 104.650,179.500 103.808 C 179.500 102.108,182.706 101.835,185.133 103.329 C 186.167 103.964,186.005 104.019,186.927 102.728 L 187.716 101.622 187.316 101.317 C 185.509 99.940,182.287 99.276,180.083 99.825 M201.527 99.999 C 192.613 103.205,195.989 116.244,205.383 114.891 C 213.321 113.748,214.285 102.358,206.646 99.981 C 205.260 99.549,202.752 99.558,201.527 99.999 M321.466 99.988 C 313.467 102.546,314.862 114.243,323.250 114.940 C 327.708 115.311,330.985 112.366,331.391 107.625 L 331.487 106.500 327.410 106.500 L 323.333 106.500 323.333 107.833 L 323.333 109.167 325.667 109.167 C 328.204 109.167,328.183 109.157,327.682 110.132 C 326.111 113.185,321.243 112.803,319.784 109.512 C 317.604 104.595,323.440 99.966,327.146 103.672 L 327.702 104.228 328.933 103.572 C 330.379 102.802,330.341 102.911,329.503 101.959 C 327.689 99.899,324.325 99.074,321.466 99.988 M219.553 100.125 C 219.603 100.285,220.185 101.804,220.845 103.500 C 221.506 105.196,222.736 108.383,223.578 110.583 L 225.110 114.583 227.138 114.630 C 228.254 114.656,229.167 114.651,229.167 114.618 C 229.167 114.570,234.499 100.732,234.783 100.042 C 234.849 99.883,234.449 99.833,233.096 99.833 C 231.827 99.833,231.303 99.893,231.251 100.042 C 231.113 100.445,228.303 108.268,227.780 109.707 C 227.488 110.509,227.206 111.165,227.153 111.166 C 227.099 111.166,226.133 108.617,225.005 105.500 L 222.955 99.833 221.208 99.833 C 219.620 99.833,219.469 99.860,219.553 100.125 M243.167 107.250 L 243.167 114.667 248.417 114.667 L 253.667 114.667 253.667 113.333 L 253.667 112.000 249.917 112.000 L 246.167 112.000 246.167 110.250 L 246.167 108.500 249.833 108.500 L 253.500 108.500 253.500 107.167 L 253.500 105.833 249.833 105.833 L 246.167 105.833 246.167 104.167 L 246.167 102.500 249.917 102.500 L 253.667 102.500 253.667 101.167 L 253.667 99.833 248.417 99.833 L 243.167 99.833 243.167 107.250 M263.000 107.240 L 263.000 114.667 264.496 114.667 L 265.992 114.667 266.037 112.042 L 266.083 109.417 267.192 109.368 C 268.507 109.310,268.333 109.129,270.157 112.458 L 271.367 114.667 273.100 114.667 C 274.053 114.667,274.833 114.628,274.833 114.581 C 274.833 114.534,274.114 113.291,273.236 111.818 C 272.357 110.345,271.663 109.120,271.694 109.097 C 271.725 109.073,272.104 108.886,272.538 108.681 C 275.723 107.171,275.632 101.987,272.393 100.396 L 271.417 99.917 267.208 99.865 L 263.000 99.813 263.000 107.240 M284.167 107.250 L 284.167 114.667 289.417 114.667 L 294.667 114.667 294.667 113.337 L 294.667 112.006 290.958 111.962 L 287.250 111.917 287.250 110.250 L 287.250 108.583 290.875 108.538 L 294.500 108.493 294.500 107.167 L 294.500 105.840 290.875 105.795 L 287.250 105.750 287.250 104.167 L 287.250 102.583 290.958 102.538 L 294.667 102.494 294.667 101.163 L 294.667 99.833 289.417 99.833 L 284.167 99.833 284.167 107.250 M304.000 107.250 L 304.000 114.667 305.500 114.667 L 307.000 114.667 307.000 107.250 L 307.000 99.833 305.500 99.833 L 304.000 99.833 304.000 107.250 M339.833 107.250 L 339.833 114.667 341.333 114.667 L 342.833 114.667 342.833 109.917 C 342.833 107.304,342.898 105.167,342.976 105.167 C 343.055 105.167,344.680 107.304,346.588 109.917 L 350.056 114.667 351.611 114.667 L 353.167 114.667 353.167 107.250 L 353.167 99.833 351.586 99.833 L 350.005 99.833 349.961 104.542 L 349.917 109.250 348.095 106.750 C 347.093 105.375,345.529 103.256,344.620 102.042 L 342.968 99.833 341.401 99.833 L 339.833 99.833 339.833 107.250 M205.688 102.588 C 210.539 104.241,209.263 112.202,204.149 112.186 C 201.314 112.177,199.595 110.346,199.595 107.333 C 199.595 103.719,202.460 101.488,205.688 102.588 M270.198 102.672 C 271.855 103.133,272.234 105.456,270.796 106.333 C 270.326 106.619,269.955 106.666,268.125 106.666 L 266.000 106.667 266.000 104.694 C 266.000 103.610,266.050 102.672,266.111 102.611 C 266.287 102.435,269.518 102.484,270.198 102.672 " stroke="none" fill="#fb3544" fill-rule="evenodd"></path><path id="path1" d="M0.000 103.667 L 0.000 207.333 200.000 207.333 L 400.000 207.333 400.000 103.667 L 400.000 0.000 200.000 0.000 L 0.000 0.000 0.000 103.667 M376.500 103.667 L 376.500 183.833 200.000 183.833 L 23.500 183.833 23.500 103.667 L 23.500 23.500 200.000 23.500 L 376.500 23.500 376.500 103.667 M30.667 102.000 L 30.667 176.834 88.208 176.792 L 145.750 176.750 145.792 101.958 L 145.834 27.167 88.250 27.167 L 30.667 27.167 30.667 102.000 M155.167 102.000 L 155.167 176.834 262.292 176.792 L 369.417 176.750 369.417 102.000 L 369.417 27.250 262.292 27.208 L 155.167 27.166 155.167 102.000 M107.583 53.974 C 109.790 54.464,113.340 55.869,114.960 56.892 C 115.843 57.449,115.972 57.445,117.587 56.814 C 124.045 54.293,126.820 54.674,128.722 58.340 C 129.577 59.988,129.119 61.088,127.365 61.599 C 124.972 62.297,124.193 62.556,123.417 62.909 C 122.958 63.117,122.415 63.340,122.208 63.405 C 121.721 63.558,121.734 63.669,122.341 64.569 C 128.267 73.349,124.403 87.604,115.583 89.499 C 102.717 92.264,95.405 75.823,104.629 64.867 C 105.038 64.381,105.345 63.959,105.311 63.929 C 104.278 63.003,98.426 62.826,94.500 63.602 C 82.079 66.057,72.944 78.163,74.154 90.565 C 75.165 100.940,78.544 106.146,86.167 109.073 C 90.460 110.722,91.086 112.463,88.905 116.688 C 88.078 118.291,85.288 118.775,81.930 117.896 C 73.342 115.649,62.296 126.587,61.374 138.250 C 60.629 147.670,65.317 153.386,75.167 155.069 C 86.712 157.041,97.378 151.547,107.171 138.583 C 108.210 137.208,109.403 135.702,109.822 135.237 C 111.403 133.478,113.667 130.556,113.667 130.271 C 113.667 130.116,114.292 129.230,114.917 128.499 C 115.192 128.178,116.017 126.909,116.750 125.681 C 119.360 121.308,121.282 120.192,123.810 121.582 C 126.878 123.268,126.811 126.649,123.617 131.417 C 123.248 131.967,122.690 132.867,122.377 133.417 C 120.925 135.963,113.671 145.575,109.862 150.000 C 99.314 162.254,86.003 167.291,71.750 164.421 C 56.407 161.332,48.099 148.084,51.726 132.493 C 53.648 124.229,62.672 113.240,69.697 110.607 L 70.477 110.314 70.059 109.699 C 67.482 105.905,64.870 98.633,64.082 93.059 C 61.453 74.452,75.644 55.768,94.000 53.668 C 96.464 53.386,105.897 53.598,107.583 53.974 M112.208 70.555 C 109.118 73.822,108.814 79.068,111.634 80.448 C 114.828 82.012,117.481 75.541,115.369 71.338 C 114.447 69.503,113.439 69.254,112.208 70.555 M185.083 100.007 C 186.030 100.361,187.833 101.423,187.833 101.627 C 187.833 101.736,186.129 104.000,186.047 104.000 C 186.017 104.000,185.708 103.812,185.360 103.582 C 183.436 102.308,180.206 102.121,179.770 103.257 C 179.371 104.298,179.893 104.756,182.134 105.327 C 187.553 106.707,189.410 109.084,187.694 112.447 C 186.082 115.607,179.537 116.030,176.296 113.185 L 175.682 112.646 176.531 111.448 C 176.997 110.789,177.403 110.222,177.432 110.188 C 177.461 110.154,177.782 110.362,178.145 110.649 C 180.476 112.496,184.333 112.637,184.771 110.893 C 185.017 109.913,184.392 109.487,181.750 108.834 C 178.217 107.960,176.811 107.063,176.345 105.387 C 175.199 101.259,180.199 98.181,185.083 100.007 M206.218 99.749 C 214.367 101.871,213.718 113.825,205.390 114.994 C 195.289 116.411,192.491 101.943,202.417 99.617 C 203.166 99.441,205.324 99.516,206.218 99.749 M327.075 100.065 C 328.304 100.618,328.967 101.117,329.763 102.089 C 330.481 102.964,330.511 102.914,328.727 103.820 L 327.676 104.354 327.063 103.741 C 322.922 99.600,316.980 105.844,320.575 110.558 C 322.392 112.940,326.947 112.400,327.745 109.708 L 327.856 109.333 325.595 109.333 L 323.333 109.333 323.333 107.833 L 323.333 106.333 327.417 106.333 L 331.500 106.333 331.500 107.298 C 331.500 115.519,320.471 118.172,316.855 110.821 C 313.654 104.314,320.499 97.111,327.075 100.065 M223.353 100.583 C 223.513 101.042,223.902 102.129,224.218 103.000 C 225.323 106.050,226.362 108.925,226.702 109.875 C 227.149 111.126,227.145 111.129,227.883 109.041 C 228.232 108.056,228.620 106.987,228.747 106.667 C 228.874 106.346,229.326 105.108,229.752 103.917 C 230.178 102.725,230.692 101.300,230.896 100.750 L 231.266 99.750 233.153 99.703 C 234.908 99.659,235.032 99.676,234.919 99.953 C 234.853 100.116,234.573 100.850,234.297 101.583 C 233.438 103.870,233.218 104.447,231.203 109.667 L 229.241 114.750 227.162 114.793 L 225.083 114.836 222.250 107.484 C 220.692 103.440,219.392 100.024,219.362 99.894 C 219.316 99.696,219.626 99.664,221.184 99.703 L 223.062 99.750 223.353 100.583 M253.667 101.167 L 253.667 102.667 250.000 102.667 L 246.333 102.667 246.333 104.167 L 246.333 105.667 249.917 105.667 L 253.500 105.667 253.500 107.167 L 253.500 108.667 249.917 108.667 L 246.333 108.667 246.333 110.250 L 246.333 111.833 250.000 111.833 L 253.667 111.833 253.667 113.333 L 253.667 114.833 248.333 114.833 L 243.000 114.833 243.000 107.250 L 243.000 99.667 248.333 99.667 L 253.667 99.667 253.667 101.167 M271.250 99.893 C 275.623 101.058,276.461 107.014,272.505 108.807 C 272.181 108.954,271.890 109.089,271.858 109.109 C 271.797 109.146,274.173 113.261,274.697 114.026 C 275.231 114.805,275.144 114.848,273.139 114.797 L 271.279 114.750 269.848 112.129 L 268.417 109.508 267.292 109.504 L 266.167 109.500 266.167 112.167 L 266.167 114.833 264.500 114.833 L 262.833 114.833 262.833 107.250 L 262.833 99.667 266.625 99.669 C 269.250 99.670,270.673 99.739,271.250 99.893 M294.667 101.167 L 294.667 102.667 291.000 102.667 L 287.333 102.667 287.333 104.167 L 287.333 105.667 291.006 105.667 L 294.680 105.667 294.631 107.125 L 294.583 108.583 290.958 108.628 L 287.333 108.673 287.333 110.253 L 287.333 111.833 291.000 111.833 L 294.667 111.833 294.667 113.333 L 294.667 114.833 289.333 114.833 L 284.000 114.833 284.000 107.361 C 284.000 103.251,284.050 99.839,284.111 99.778 C 284.172 99.717,286.572 99.667,289.444 99.667 L 294.667 99.667 294.667 101.167 M307.167 107.250 L 307.167 114.833 305.500 114.833 L 303.833 114.833 303.833 107.250 L 303.833 99.667 305.500 99.667 L 307.167 99.667 307.167 107.250 M345.377 102.875 C 346.688 104.640,348.209 106.704,348.756 107.462 L 349.750 108.841 349.833 104.295 L 349.917 99.750 351.542 99.702 L 353.167 99.655 353.167 107.244 L 353.167 114.833 351.598 114.833 L 350.029 114.833 349.227 113.708 C 348.785 113.090,347.973 111.973,347.420 111.227 C 346.868 110.481,345.667 108.848,344.750 107.597 L 343.083 105.323 343.039 110.078 L 342.995 114.833 341.331 114.833 L 339.667 114.833 339.667 107.250 L 339.667 99.667 341.329 99.667 L 342.992 99.667 345.377 102.875 M202.447 102.741 C 198.422 104.177,198.912 111.134,203.100 112.003 C 206.196 112.646,208.533 110.604,208.533 107.255 C 208.533 103.752,205.637 101.604,202.447 102.741 M266.167 104.583 L 266.167 106.500 268.208 106.499 C 270.634 106.499,271.186 106.281,271.511 105.196 C 272.039 103.435,271.003 102.667,268.102 102.667 L 266.167 102.667 266.167 104.583 " stroke="none" fill="#fbfbfb" fill-rule="evenodd"></path><path id="path2" d="M23.583 103.667 C 23.583 147.804,23.602 165.860,23.625 143.792 C 23.648 121.723,23.648 85.610,23.625 63.542 C 23.602 41.473,23.583 59.529,23.583 103.667 M59.361 27.125 C 75.189 27.148,101.139 27.148,117.028 27.125 C 132.917 27.102,119.967 27.082,88.250 27.082 C 56.533 27.082,43.533 27.102,59.361 27.125 M193.917 27.125 C 298.445 27.238,369.500 27.238,369.500 27.125 C 369.500 27.056,321.256 27.019,262.292 27.041 C 203.327 27.064,172.558 27.102,193.917 27.125 M74.073 63.708 L 73.583 64.250 74.125 63.760 C 74.630 63.304,74.743 63.167,74.615 63.167 C 74.586 63.167,74.342 63.410,74.073 63.708 M125.062 75.000 C 125.062 75.962,125.089 76.356,125.123 75.875 C 125.157 75.394,125.157 74.606,125.123 74.125 C 125.089 73.644,125.062 74.037,125.062 75.000 M100.559 75.917 C 100.559 76.742,100.587 77.100,100.622 76.713 C 100.657 76.327,100.657 75.652,100.623 75.213 C 100.588 74.775,100.560 75.092,100.559 75.917 M219.833 99.775 C 221.201 99.897,223.130 99.907,223.058 99.792 C 223.015 99.723,222.141 99.679,221.115 99.695 C 220.089 99.710,219.512 99.746,219.833 99.775 M231.833 99.774 C 233.215 99.897,235.001 99.907,235.000 99.792 C 235.000 99.723,234.156 99.679,233.125 99.695 C 232.094 99.710,231.512 99.746,231.833 99.774 M245.625 99.791 C 247.115 99.819,249.552 99.819,251.042 99.791 C 252.531 99.764,251.313 99.741,248.333 99.741 C 245.354 99.741,244.135 99.764,245.625 99.791 M264.801 99.791 C 265.929 99.820,267.729 99.820,268.801 99.791 C 269.873 99.762,268.950 99.738,266.750 99.739 C 264.550 99.739,263.673 99.762,264.801 99.791 M286.802 99.791 C 288.298 99.819,290.698 99.819,292.135 99.791 C 293.573 99.764,292.350 99.741,289.417 99.741 C 286.483 99.741,285.307 99.764,286.802 99.791 M304.625 99.790 C 305.106 99.823,305.894 99.823,306.375 99.790 C 306.856 99.756,306.462 99.728,305.500 99.728 C 304.537 99.728,304.144 99.756,304.625 99.790 M340.458 99.790 C 340.940 99.823,341.727 99.823,342.208 99.790 C 342.690 99.756,342.296 99.728,341.333 99.728 C 340.371 99.728,339.977 99.756,340.458 99.790 M350.875 99.789 C 351.310 99.824,352.023 99.824,352.458 99.789 C 352.894 99.755,352.537 99.727,351.667 99.727 C 350.796 99.727,350.440 99.755,350.875 99.789 M349.907 104.417 C 349.907 106.983,349.930 108.010,349.958 106.698 C 349.986 105.386,349.986 103.286,349.958 102.032 C 349.930 100.777,349.907 101.850,349.907 104.417 M79.500 105.052 C 79.500 105.081,79.744 105.325,80.042 105.594 L 80.583 106.083 80.094 105.542 C 79.638 105.037,79.500 104.923,79.500 105.052 M294.534 107.038 L 294.500 108.493 290.875 108.542 L 287.250 108.590 290.880 108.628 C 295.044 108.672,294.708 108.827,294.624 106.902 L 294.567 105.583 294.534 107.038 M325.385 106.458 C 326.559 106.487,328.434 106.487,329.551 106.458 C 330.669 106.429,329.708 106.405,327.417 106.406 C 325.125 106.406,324.211 106.429,325.385 106.458 M267.042 106.623 C 267.569 106.656,268.431 106.656,268.958 106.623 C 269.485 106.590,269.054 106.563,268.000 106.563 C 266.946 106.563,266.515 106.590,267.042 106.623 M316.048 107.250 C 316.049 107.708,316.081 107.876,316.120 107.623 C 316.158 107.369,316.157 106.994,316.117 106.789 C 316.078 106.584,316.046 106.792,316.048 107.250 M196.212 107.333 C 196.212 107.746,196.245 107.915,196.284 107.708 C 196.324 107.502,196.324 107.165,196.284 106.958 C 196.245 106.752,196.212 106.921,196.212 107.333 M248.032 108.624 C 249.013 108.654,250.663 108.654,251.699 108.625 C 252.735 108.595,251.933 108.571,249.917 108.571 C 247.900 108.571,247.052 108.595,248.032 108.624 M248.125 111.958 C 249.156 111.987,250.844 111.987,251.875 111.958 C 252.906 111.929,252.063 111.905,250.000 111.905 C 247.938 111.905,247.094 111.929,248.125 111.958 M289.125 111.958 C 290.156 111.987,291.844 111.987,292.875 111.958 C 293.906 111.929,293.063 111.905,291.000 111.905 C 288.938 111.905,288.094 111.929,289.125 111.958 M181.794 115.118 C 182.001 115.158,182.301 115.156,182.460 115.115 C 182.620 115.073,182.450 115.040,182.083 115.042 C 181.717 115.044,181.586 115.078,181.794 115.118 M203.875 115.115 C 204.035 115.157,204.298 115.157,204.458 115.115 C 204.619 115.073,204.487 115.039,204.167 115.039 C 203.846 115.039,203.715 115.073,203.875 115.115 M323.542 115.115 C 323.702 115.157,323.965 115.157,324.125 115.115 C 324.285 115.073,324.154 115.039,323.833 115.039 C 323.512 115.039,323.381 115.073,323.542 115.115 M62.073 116.042 L 61.583 116.583 62.125 116.094 C 62.630 115.638,62.743 115.500,62.615 115.500 C 62.586 115.500,62.342 115.744,62.073 116.042 M118.906 122.542 L 118.417 123.083 118.958 122.594 C 119.256 122.325,119.500 122.081,119.500 122.052 C 119.500 121.923,119.362 122.037,118.906 122.542 M64.167 149.719 C 64.167 149.748,64.410 149.991,64.708 150.260 L 65.250 150.750 64.760 150.208 C 64.304 149.703,64.167 149.590,64.167 149.719 M108.240 151.708 L 107.750 152.250 108.292 151.760 C 108.590 151.491,108.833 151.248,108.833 151.219 C 108.833 151.090,108.696 151.203,108.240 151.708 " stroke="none" fill="#d4c5c5" fill-rule="evenodd"></path><path id="path3" d="M30.583 102.000 C 30.583 143.204,30.602 160.060,30.625 139.458 C 30.648 118.856,30.648 85.144,30.625 64.542 C 30.602 43.940,30.583 60.796,30.583 102.000 M155.083 102.000 C 155.083 143.204,155.102 160.060,155.125 139.458 C 155.148 118.856,155.148 85.144,155.125 64.542 C 155.102 43.940,155.083 60.796,155.083 102.000 M284.077 107.250 C 284.077 111.375,284.098 113.039,284.125 110.947 C 284.151 108.855,284.151 105.480,284.125 103.447 C 284.098 101.414,284.077 103.125,284.077 107.250 M303.910 107.333 C 303.910 111.504,303.932 113.210,303.958 111.125 C 303.985 109.040,303.985 105.627,303.958 103.542 C 303.932 101.456,303.910 103.162,303.910 107.333 M339.743 107.250 C 339.743 111.375,339.765 113.039,339.792 110.947 C 339.818 108.855,339.818 105.480,339.791 103.447 C 339.765 101.414,339.743 103.125,339.743 107.250 M203.794 102.451 C 204.001 102.491,204.301 102.490,204.460 102.448 C 204.620 102.406,204.450 102.374,204.083 102.375 C 203.717 102.377,203.586 102.411,203.794 102.451 M323.794 102.451 C 324.001 102.491,324.301 102.490,324.460 102.448 C 324.620 102.406,324.450 102.374,324.083 102.375 C 323.717 102.377,323.586 102.411,323.794 102.451 M246.227 104.167 C 246.227 105.037,246.255 105.394,246.289 104.958 C 246.324 104.523,246.324 103.810,246.289 103.375 C 246.255 102.940,246.227 103.296,246.227 104.167 M176.205 104.167 C 176.205 104.487,176.240 104.619,176.282 104.458 C 176.323 104.298,176.323 104.035,176.282 103.875 C 176.240 103.715,176.205 103.846,176.205 104.167 M319.375 107.250 C 319.377 107.617,319.411 107.747,319.451 107.540 C 319.491 107.332,319.490 107.032,319.448 106.873 C 319.406 106.714,319.374 106.883,319.375 107.250 M246.228 110.250 C 246.228 111.167,246.256 111.520,246.290 111.036 C 246.324 110.552,246.323 109.802,246.289 109.369 C 246.255 108.937,246.227 109.333,246.228 110.250 " stroke="none" fill="#e1a2a4" fill-rule="evenodd"></path><path id="path4" d="M376.375 103.542 L 376.333 183.667 199.958 183.708 L 23.583 183.750 199.964 183.792 C 340.945 183.825,376.360 183.792,376.423 183.625 C 376.466 183.510,376.483 147.417,376.459 103.417 L 376.416 23.417 376.375 103.542 M145.916 101.917 C 145.916 143.075,145.935 159.888,145.958 139.278 C 145.982 118.668,145.982 84.993,145.958 64.445 C 145.935 43.896,145.916 60.758,145.916 101.917 M96.208 53.615 C 96.369 53.657,96.631 53.657,96.792 53.615 C 96.952 53.573,96.821 53.539,96.500 53.539 C 96.179 53.539,96.048 53.573,96.208 53.615 M123.460 55.285 C 123.668 55.324,123.968 55.323,124.127 55.281 C 124.286 55.239,124.117 55.207,123.750 55.209 C 123.383 55.211,123.253 55.245,123.460 55.285 M99.958 62.951 C 100.165 62.991,100.502 62.991,100.708 62.951 C 100.915 62.911,100.746 62.879,100.333 62.879 C 99.921 62.879,99.752 62.911,99.958 62.951 M73.406 64.542 L 72.917 65.083 73.458 64.594 C 73.963 64.138,74.077 64.000,73.948 64.000 C 73.919 64.000,73.675 64.244,73.406 64.542 M109.542 76.917 C 109.544 77.283,109.578 77.414,109.618 77.206 C 109.658 76.999,109.656 76.699,109.615 76.540 C 109.573 76.380,109.540 76.550,109.542 76.917 M104.667 86.583 C 104.978 86.904,105.270 87.167,105.315 87.167 C 105.361 87.167,105.144 86.904,104.833 86.583 C 104.522 86.263,104.230 86.000,104.185 86.000 C 104.139 86.000,104.356 86.263,104.667 86.583 M120.575 86.708 L 119.917 87.417 120.625 86.758 C 121.015 86.395,121.333 86.077,121.333 86.050 C 121.333 85.923,121.188 86.050,120.575 86.708 M203.711 99.620 C 203.964 99.658,204.339 99.657,204.544 99.617 C 204.749 99.578,204.542 99.546,204.083 99.548 C 203.625 99.549,203.457 99.581,203.711 99.620 M323.711 99.620 C 323.964 99.658,324.339 99.657,324.544 99.617 C 324.749 99.578,324.542 99.546,324.083 99.548 C 323.625 99.549,323.457 99.581,323.711 99.620 M243.081 107.292 L 243.083 114.750 248.375 114.754 L 253.667 114.757 248.418 114.710 L 243.170 114.662 243.124 107.248 L 243.078 99.833 243.081 107.292 M262.914 107.292 L 262.917 114.750 264.500 114.750 L 266.083 114.750 266.129 112.133 L 266.175 109.515 267.296 109.453 L 268.417 109.390 267.250 109.403 L 266.083 109.417 266.037 112.042 L 265.992 114.667 264.497 114.667 L 263.003 114.667 262.957 107.250 L 262.911 99.833 262.914 107.292 M307.040 107.202 L 307.000 114.654 305.458 114.709 L 303.917 114.764 305.464 114.799 C 306.574 114.824,307.033 114.775,307.090 114.625 C 307.134 114.510,307.150 111.117,307.125 107.083 L 307.080 99.750 307.040 107.202 M247.958 102.624 C 248.990 102.654,250.677 102.654,251.708 102.624 C 252.740 102.595,251.896 102.571,249.833 102.571 C 247.771 102.571,246.927 102.595,247.958 102.624 M267.214 102.623 C 267.745 102.657,268.570 102.656,269.048 102.623 C 269.526 102.589,269.092 102.562,268.083 102.562 C 267.075 102.563,266.684 102.590,267.214 102.623 M287.238 102.722 C 287.191 102.845,287.174 103.576,287.201 104.347 L 287.250 105.750 290.833 105.755 L 294.417 105.760 290.875 105.710 L 287.333 105.660 287.333 104.167 L 287.333 102.673 290.958 102.625 L 294.583 102.576 290.953 102.538 C 288.054 102.508,287.306 102.545,287.238 102.722 M266.064 104.667 C 266.064 105.813,266.091 106.281,266.123 105.708 C 266.156 105.135,266.156 104.198,266.123 103.625 C 266.091 103.052,266.064 103.521,266.064 104.667 M274.883 104.667 C 274.883 105.171,274.915 105.377,274.953 105.125 C 274.991 104.873,274.991 104.460,274.953 104.208 C 274.915 103.956,274.883 104.162,274.883 104.667 M342.872 109.869 L 342.833 114.654 341.292 114.709 L 339.750 114.764 341.297 114.799 C 343.197 114.841,343.015 115.392,342.958 109.748 L 342.911 105.083 342.872 109.869 M247.958 105.791 C 248.990 105.820,250.677 105.820,251.708 105.791 C 252.740 105.762,251.896 105.738,249.833 105.738 C 247.771 105.738,246.927 105.762,247.958 105.791 M211.883 107.333 C 211.883 107.837,211.915 108.044,211.953 107.792 C 211.991 107.540,211.991 107.127,211.953 106.875 C 211.915 106.623,211.883 106.829,211.883 107.333 M287.225 110.500 C 287.225 111.279,287.254 111.598,287.289 111.208 C 287.324 110.819,287.324 110.181,287.289 109.792 C 287.254 109.402,287.225 109.721,287.225 110.500 M324.458 109.290 C 325.123 109.322,326.210 109.322,326.875 109.290 C 327.540 109.259,326.996 109.233,325.667 109.233 C 324.337 109.233,323.794 109.259,324.458 109.290 M329.073 113.042 L 328.583 113.583 329.125 113.094 C 329.630 112.638,329.743 112.500,329.615 112.500 C 329.586 112.500,329.342 112.744,329.073 113.042 M225.147 114.714 C 225.219 114.786,226.171 114.823,227.264 114.796 L 229.250 114.748 227.133 114.666 C 225.968 114.620,225.074 114.642,225.147 114.714 M273.083 114.667 L 271.250 114.767 273.125 114.800 C 274.286 114.821,275.000 114.770,275.000 114.667 C 275.000 114.575,274.981 114.515,274.958 114.533 C 274.935 114.551,274.092 114.611,273.083 114.667 M286.802 114.791 C 288.298 114.819,290.698 114.819,292.135 114.791 C 293.573 114.764,292.350 114.741,289.417 114.741 C 286.483 114.741,285.307 114.764,286.802 114.791 M350.797 114.790 C 351.282 114.824,352.032 114.823,352.464 114.789 C 352.896 114.755,352.500 114.727,351.583 114.728 C 350.667 114.728,350.313 114.756,350.797 114.790 M51.042 137.083 C 51.044 137.450,51.078 137.580,51.118 137.373 C 51.158 137.166,51.156 136.866,51.115 136.706 C 51.073 136.547,51.040 136.717,51.042 137.083 M51.039 141.500 C 51.039 141.821,51.073 141.952,51.115 141.792 C 51.157 141.631,51.157 141.369,51.115 141.208 C 51.073 141.048,51.039 141.179,51.039 141.500 M106.406 153.542 L 105.917 154.083 106.458 153.594 C 106.756 153.325,107.000 153.081,107.000 153.052 C 107.000 152.923,106.862 153.037,106.406 153.542 M78.292 165.123 C 78.773 165.157,79.560 165.157,80.042 165.123 C 80.523 165.089,80.129 165.062,79.167 165.062 C 78.204 165.062,77.810 165.089,78.292 165.123 " stroke="none" fill="#e48e8a" fill-rule="evenodd"></path></g></svg>